<svg width="22" height="23" viewBox="0 0 22 23" fill="none" xmlns="http://www.w3.org/2000/svg">
<path d="M11.7493 13.4761H12.7894V10.5216H15.7438V9.48157H12.7894V6.52708H11.7493V9.48157H8.79485V10.5216H11.7493V13.4761ZM6.38156 17.2115C6.02209 17.2115 5.71187 17.081 5.45089 16.82C5.18993 16.5591 5.05945 16.2488 5.05945 15.8894V4.11382C5.05945 3.75435 5.18993 3.44412 5.45089 3.18315C5.71187 2.92217 6.02209 2.79169 6.38156 2.79169H18.1571C18.5166 2.79169 18.8268 2.92217 19.0878 3.18315C19.3487 3.44412 19.4792 3.75435 19.4792 4.11382V15.8894C19.4792 16.2488 19.3487 16.5591 19.0878 16.82C18.8268 17.081 18.5166 17.2115 18.1571 17.2115H6.38156ZM6.38156 16.1714H18.1571C18.2276 16.1714 18.2923 16.1421 18.351 16.0833C18.4098 16.0245 18.4392 15.9599 18.4392 15.8894V4.11382C18.4392 4.0433 18.4098 3.97865 18.351 3.91987C18.2923 3.86112 18.2276 3.83174 18.1571 3.83174H6.38156C6.31104 3.83174 6.2464 3.86112 6.18764 3.91987C6.12887 3.97865 6.09948 4.0433 6.09948 4.11382V15.8894C6.09948 15.9599 6.12887 16.0245 6.18764 16.0833C6.2464 16.1421 6.31104 16.1714 6.38156 16.1714ZM3.8431 19.7499C3.48365 19.7499 3.17343 19.6194 2.91246 19.3585C2.65148 19.0975 2.521 18.7873 2.521 18.4278V5.61222H3.56105V18.4278C3.56105 18.4983 3.59043 18.563 3.64918 18.6217C3.70796 18.6805 3.7726 18.7099 3.8431 18.7099H16.6587V19.7499H3.8431Z" fill="white"/>
</svg>
