<svg width="25" height="25" viewBox="0 0 25 25" fill="none" xmlns="http://www.w3.org/2000/svg">
<path d="M6.59651 20.3125C5.1924 20.3125 4.00236 19.8215 3.02641 18.8395C2.05047 17.8575 1.5625 16.6672 1.5625 15.2684C1.5625 13.977 1.99252 12.8519 2.85255 11.8931C3.71259 10.9342 4.77562 10.394 6.04164 10.2725C6.24864 8.85421 6.92205 7.59519 8.06187 6.49543C9.20168 5.39567 10.4894 4.84579 11.9251 4.84579C12.2415 4.84579 12.5176 4.93627 12.7534 5.11723C12.9891 5.29818 13.1069 5.53822 13.1069 5.83736V13.7741L15.3785 11.4924L16.2279 12.3518L12.516 16.0537L8.81409 12.3518L9.66341 11.4924L11.9251 13.7741V5.93751C10.4854 6.04836 9.31187 6.66201 8.4044 7.77845C7.49695 8.89491 7.04323 10.1075 7.04323 11.4163H6.53841C5.49598 11.4163 4.60303 11.7862 3.85956 12.5261C3.11609 13.2659 2.74435 14.1834 2.74435 15.2785C2.74435 16.3735 3.12496 17.2893 3.88617 18.0258C4.64739 18.7624 5.55175 19.1306 6.59927 19.1306H19.4771C20.245 19.1306 20.9001 18.859 21.4422 18.3157C21.9844 17.7724 22.2555 17.119 22.2555 16.3556C22.2555 15.5921 21.9844 14.9392 21.4422 14.397C20.9001 13.8548 20.2438 13.5837 19.4736 13.5837H17.8565V11.4163C17.8565 10.3225 17.5968 9.36435 17.0773 8.54171C16.5578 7.71905 15.8834 7.06266 15.0541 6.57254V5.27048C16.28 5.76729 17.2505 6.57725 17.9657 7.70038C18.6808 8.82349 19.0384 10.0621 19.0384 11.4163V12.4019H19.3589C20.4954 12.3605 21.4593 12.7164 22.2505 13.4696C23.0418 14.2228 23.4374 15.1837 23.4374 16.3522C23.4374 17.4366 23.0485 18.3677 22.2705 19.1456C21.4926 19.9235 20.5615 20.3125 19.4771 20.3125H6.59651Z" fill="black"/>
</svg>
